<?xml version="1.0"?>
<svg width="250mm" height="200mm" viewBox="0 0 4100 2760"
     xmlns="http://www.w3.org/2000/svg"
     xmlns:xlink="http://www.w3.org/1999/xlink"
     xmlns:ev="http://www.w3.org/2001/xml-events">
<g font-family="Verdana" font-size="8">
  <line x1="300" y1="2510" x2="300" y2="2590" style="stroke:silver;"/>
  <line x1="300" y1="2510" x2="300" y2="2670" style="stroke:silver;"/>
  <line x1="300" y1="2510" x2="300" y2="2750" style="stroke:silver;"/>
  <line x1="300" y1="2590" x2="300" y2="2670" style="stroke:silver;"/>
  <line x1="300" y1="2590" x2="300" y2="2750" style="stroke:silver;"/>
  <line x1="300" y1="2670" x2="300" y2="2750" style="stroke:silver;"/>
  <line x1="900" y1="830" x2="2050" y2="2350" style="stroke:silver;"/>
  <line x1="900" y1="870" x2="2050" y2="2390" style="stroke:silver;"/>
  <line x1="3100" y1="1190" x2="1800" y2="750" style="stroke:silver;"/>
  <line x1="3100" y1="1230" x2="2100" y2="30" style="stroke:silver;"/>
  <line x1="3100" y1="1270" x2="2100" y2="270" style="stroke:silver;"/>
  <line x1="3100" y1="1310" x2="2100" y2="510" style="stroke:silver;"/>
  <line x1="3100" y1="1430" x2="2100" y2="150" style="stroke:silver;"/>
  <line x1="3100" y1="1390" x2="2100" y2="110" style="stroke:silver;"/>
  <line x1="3100" y1="1350" x2="2100" y2="70" style="stroke:silver;"/>
  <line x1="3100" y1="1470" x2="2100" y2="190" style="stroke:silver;"/>
  <line x1="3100" y1="1590" x2="2100" y2="390" style="stroke:silver;"/>
  <line x1="3100" y1="1550" x2="2100" y2="350" style="stroke:silver;"/>
  <line x1="3100" y1="1510" x2="2100" y2="310" style="stroke:silver;"/>
  <line x1="3100" y1="1630" x2="2100" y2="430" style="stroke:silver;"/>
  <line x1="3100" y1="1750" x2="2100" y2="630" style="stroke:silver;"/>
  <line x1="3100" y1="1710" x2="2100" y2="590" style="stroke:silver;"/>
  <line x1="3100" y1="1670" x2="2100" y2="550" style="stroke:silver;"/>
  <line x1="3100" y1="1790" x2="2100" y2="670" style="stroke:silver;"/>
  <line x1="3100" y1="1870" x2="900" y2="30" style="stroke:silver;"/>
  <line x1="3100" y1="1910" x2="900" y2="270" style="stroke:silver;"/>
  <line x1="3100" y1="1950" x2="900" y2="510" style="stroke:silver;"/>
  <line x1="3100" y1="1830" x2="800" y2="750" style="stroke:silver;"/>
  <line x1="2400" y1="1030" x2="600" y2="510" style="stroke:silver;"/>
  <line x1="2400" y1="990" x2="600" y2="270" style="stroke:silver;"/>
  <line x1="2400" y1="950" x2="600" y2="30" style="stroke:silver;"/>
  <line x1="2400" y1="910" x2="550" y2="750" style="stroke:silver;"/>
  <rect x="1950" y="740" width="200" height="20" style="fill:chartreuse; stroke: black;"/>1
  <text x="1952" y="753">BASEMENT</text>
  <rect x="800" y="2060" width="200" height="20" style="fill:orange; stroke: black;"/>17
  <text x="802" y="2073">SWHSYS1 WATER HEATER</text>
  <rect x="200" y="2500" width="200" height="20" style="fill:snow; stroke: black;"/>18
  <text x="202" y="2513">OutdoorAir:NodeList</text>
  <rect x="200" y="2580" width="200" height="20" style="fill:snow; stroke: black;"/>19
  <text x="202" y="2593">OutdoorAir:NodeList</text>
  <rect x="200" y="2660" width="200" height="20" style="fill:snow; stroke: black;"/>20
  <text x="202" y="2673">OutdoorAir:NodeList</text>
  <rect x="200" y="2740" width="200" height="20" style="fill:snow; stroke: black;"/>21
  <text x="202" y="2753">OutdoorAir:NodeList</text>
  <rect x="2300" y="1060" width="200" height="20" style="fill:wheat; stroke: black;"/>46
  <text x="2302" y="1073">COOLSYS1 DEMAND BYPASS PIPE</text>
  <rect x="1700" y="900" width="200" height="20" style="fill:wheat; stroke: black;"/>47
  <text x="1702" y="913">COOLSYS1 DEMAND INLET PIPE</text>
  <rect x="2900" y="1060" width="200" height="20" style="fill:wheat; stroke: black;"/>48
  <text x="2902" y="1073">COOLSYS1 DEMAND OUTLET PIPE</text>
  <rect x="800" y="900" width="200" height="20" style="fill:wheat; stroke: black;"/>49
  <text  x="802" y="908">COOLSYS1 SUPPLY EQUIPMENT BYPASS
  <tspan x="802" y="916">PIPE</tspan></text>
  <rect x="1400" y="900" width="200" height="20" style="fill:wheat; stroke: black;"/>50
  <text x="1402" y="913">COOLSYS1 SUPPLY OUTLET PIPE</text>
  <rect x="3000" y="1980" width="200" height="20" style="fill:wheat; stroke: black;"/>51
  <text x="3002" y="1993">HEATSYS1 DEMAND BYPASS PIPE</text>
  <rect x="2200" y="1180" width="200" height="20" style="fill:wheat; stroke: black;"/>52
  <text x="2202" y="1193">HEATSYS1 DEMAND INLET PIPE</text>
  <rect x="3800" y="1980" width="200" height="20" style="fill:wheat; stroke: black;"/>53
  <text x="3802" y="1993">HEATSYS1 DEMAND OUTLET PIPE</text>
  <rect x="1000" y="1180" width="200" height="20" style="fill:wheat; stroke: black;"/>54
  <text  x="1002" y="1188">HEATSYS1 SUPPLY EQUIPMENT BYPASS
  <tspan x="1002" y="1196">PIPE</tspan></text>
  <rect x="1800" y="1180" width="200" height="20" style="fill:wheat; stroke: black;"/>55
  <text x="1802" y="1193">HEATSYS1 SUPPLY OUTLET PIPE</text>
  <rect x="1950" y="2420" width="200" height="20" style="fill:wheat; stroke: black;"/>56
  <text x="1952" y="2433">TOWERWATERSYS DEMAND BYPASS PIPE</text>
  <rect x="1450" y="2340" width="200" height="20" style="fill:wheat; stroke: black;"/>57
  <text x="1452" y="2353">TOWERWATERSYS DEMAND INLET PIPE</text>
  <rect x="2450" y="2420" width="200" height="20" style="fill:wheat; stroke: black;"/>58
  <text x="2452" y="2433">TOWERWATERSYS DEMAND OUTLET PIPE</text>
  <rect x="700" y="2340" width="200" height="20" style="fill:wheat; stroke: black;"/>59
  <text  x="702" y="2348">TOWERWATERSYS SUPPLY EQUIPMENT
  <tspan x="702" y="2356">BYPASS PIPE</tspan></text>
  <rect x="1200" y="2340" width="200" height="20" style="fill:wheat; stroke: black;"/>60
  <text x="1202" y="2353">TOWERWATERSYS SUPPLY OUTLET PIPE</text>
  <rect x="2300" y="2220" width="200" height="20" style="fill:wheat; stroke: black;"/>61
  <text x="2302" y="2233">SWHSYS1 DEMAND BYPASS PIPE</text>
  <rect x="1700" y="2100" width="200" height="20" style="fill:wheat; stroke: black;"/>62
  <text x="1702" y="2113">SWHSYS1 DEMAND INLET PIPE</text>
  <rect x="2900" y="2220" width="200" height="20" style="fill:wheat; stroke: black;"/>63
  <text x="2902" y="2233">SWHSYS1 DEMAND OUTLET PIPE</text>
  <rect x="800" y="2100" width="200" height="20" style="fill:wheat; stroke: black;"/>64
  <text x="802" y="2113">SWHSYS1 SUPPLY EQUIPMENT BYPASS PIPE</text>
  <rect x="1400" y="2100" width="200" height="20" style="fill:wheat; stroke: black;"/>65
  <text x="1402" y="2113">SWHSYS1 SUPPLY OUTLET PIPE</text>
  <rect x="2000" y="900" width="200" height="20" style="fill:wheat; stroke: black;"/>66
  <text x="2002" y="913">COOLSYS1 DEMAND SPLITTER</text>
  <rect x="2600" y="1060" width="200" height="20" style="fill:wheat; stroke: black;"/>67
  <text x="2602" y="1073">COOLSYS1 DEMAND MIXER</text>
  <rect x="800" y="820" width="200" height="20" style="fill:powderblue; stroke: black;"/>68
  <text x="802" y="833">COOLSYS1 CHILLER 1</text>
  <rect x="1950" y="2340" width="200" height="20" style="fill:powderblue; stroke: black;"/>69
  <text x="1952" y="2353">COOLSYS1 CHILLER 1</text>
  <rect x="800" y="860" width="200" height="20" style="fill:powderblue; stroke: black;"/>70
  <text x="802" y="873">COOLSYS1 CHILLER 2</text>
  <rect x="1950" y="2380" width="200" height="20" style="fill:powderblue; stroke: black;"/>71
  <text x="1952" y="2393">COOLSYS1 CHILLER 2</text>
  <rect x="500" y="820" width="200" height="20" style="fill:wheat; stroke: black;"/>72
  <text x="502" y="833">COOLSYS1 SUPPLY SPLITTER</text>
  <rect x="1100" y="900" width="200" height="20" style="fill:wheat; stroke: black;"/>73
  <text x="1102" y="913">COOLSYS1 SUPPLY MIXER</text>
  <rect x="2600" y="1180" width="200" height="20" style="fill:wheat; stroke: black;"/>74
  <text x="2602" y="1193">HEATSYS1 DEMAND SPLITTER</text>
  <rect x="3400" y="1980" width="200" height="20" style="fill:wheat; stroke: black;"/>75
  <text x="3402" y="1993">HEATSYS1 DEMAND MIXER</text>
  <rect x="1000" y="1140" width="200" height="20" style="fill:indianred; stroke: black;"/>76
  <text x="1002" y="1153">HEATSYS1 BOILER</text>
  <rect x="600" y="1140" width="200" height="20" style="fill:wheat; stroke: black;"/>77
  <text x="602" y="1153">HEATSYS1 SUPPLY SPLITTER</text>
  <rect x="1400" y="1180" width="200" height="20" style="fill:wheat; stroke: black;"/>78
  <text x="1402" y="1193">HEATSYS1 SUPPLY MIXER</text>
  <rect x="2300" y="2100" width="200" height="20" style="fill:wheat; stroke: black;"/>79
  <text x="2302" y="2113">CORE_BOTTOM WATER EQUIPMENT</text>
  <rect x="2300" y="2140" width="200" height="20" style="fill:wheat; stroke: black;"/>80
  <text x="2302" y="2153">CORE_MID WATER EQUIPMENT</text>
  <rect x="2300" y="2180" width="200" height="20" style="fill:wheat; stroke: black;"/>81
  <text x="2302" y="2193">CORE_TOP WATER EQUIPMENT</text>
  <rect x="2000" y="2100" width="200" height="20" style="fill:wheat; stroke: black;"/>82
  <text x="2002" y="2113">SWHSYS1 DEMAND SPLITTER</text>
  <rect x="2600" y="2220" width="200" height="20" style="fill:wheat; stroke: black;"/>83
  <text x="2602" y="2233">SWHSYS1 DEMAND MIXER</text>
  <rect x="500" y="2060" width="200" height="20" style="fill:wheat; stroke: black;"/>84
  <text x="502" y="2073">SWHSYS1 SUPPLY SPLITTER</text>
  <rect x="1100" y="2100" width="200" height="20" style="fill:wheat; stroke: black;"/>85
  <text x="1102" y="2113">SWHSYS1 SUPPLY MIXER</text>
  <rect x="1700" y="2340" width="200" height="20" style="fill:wheat; stroke: black;"/>86
  <text x="1702" y="2353">TOWERWATERSYS DEMAND SPLITTER</text>
  <rect x="2200" y="2420" width="200" height="20" style="fill:wheat; stroke: black;"/>87
  <text x="2202" y="2433">TOWERWATERSYS DEMAND MIXER</text>
  <rect x="700" y="2300" width="200" height="20" style="fill:pink; stroke: black;"/>88
  <text x="702" y="2313">TOWERWATERSYS COOLTOWER</text>
  <rect x="450" y="2300" width="200" height="20" style="fill:wheat; stroke: black;"/>89
  <text x="452" y="2313">TOWERWATERSYS SUPPLY SPLITTER</text>
  <rect x="950" y="2340" width="200" height="20" style="fill:wheat; stroke: black;"/>90
  <text x="952" y="2353">TOWERWATERSYS SUPPLY MIXER</text>
  <rect x="1400" y="20" width="200" height="20" style="fill:wheat; stroke: black;"/>91
  <text x="1402" y="33">VAV_1 SUPPLY AIR SPLITTER</text>
  <rect x="1400" y="260" width="200" height="20" style="fill:wheat; stroke: black;"/>92
  <text x="1402" y="273">VAV_2 SUPPLY AIR SPLITTER</text>
  <rect x="1400" y="500" width="200" height="20" style="fill:wheat; stroke: black;"/>93
  <text x="1402" y="513">VAV_3 SUPPLY AIR SPLITTER</text>
  <rect x="1200" y="740" width="200" height="20" style="fill:wheat; stroke: black;"/>94
  <text x="1202" y="753">VAV_5 SUPPLY AIR SPLITTER</text>
  <rect x="1450" y="740" width="200" height="20" style="fill:wheat; stroke: black;"/>95
  <text x="1452" y="753">BASEMENT VAV BOX COMPONENT</text>
  <rect x="3000" y="1180" width="200" height="20" style="fill:salmon; stroke: black;"/>96
  <text x="3002" y="1193">BASEMENT VAV BOX REHEAT COIL</text>
  <rect x="1700" y="740" width="200" height="20" style="fill:salmon; stroke: black;"/>97
  <text x="1702" y="753">BASEMENT VAV BOX REHEAT COIL</text>
  <rect x="3000" y="1220" width="200" height="20" style="fill:salmon; stroke: black;"/>98
  <text x="3002" y="1233">CORE_BOTTOM VAV BOX REHEAT COIL</text>
  <rect x="2000" y="20" width="200" height="20" style="fill:salmon; stroke: black;"/>99
  <text x="2002" y="33">CORE_BOTTOM VAV BOX REHEAT COIL</text>
  <rect x="3000" y="1260" width="200" height="20" style="fill:salmon; stroke: black;"/>100
  <text x="3002" y="1273">CORE_MID VAV BOX REHEAT COIL</text>
  <rect x="2000" y="260" width="200" height="20" style="fill:salmon; stroke: black;"/>101
  <text x="2002" y="273">CORE_MID VAV BOX REHEAT COIL</text>
  <rect x="3000" y="1300" width="200" height="20" style="fill:salmon; stroke: black;"/>102
  <text x="3002" y="1313">CORE_TOP VAV BOX REHEAT COIL</text>
  <rect x="2000" y="500" width="200" height="20" style="fill:salmon; stroke: black;"/>103
  <text x="2002" y="513">CORE_TOP VAV BOX REHEAT COIL</text>
  <rect x="3000" y="1420" width="200" height="20" style="fill:salmon; stroke: black;"/>104
  <text  x="3002" y="1428">PERIMETER_BOT_ZN_1 VAV BOX REHEAT
  <tspan x="3002" y="1436">COIL</tspan></text>
  <rect x="2000" y="140" width="200" height="20" style="fill:salmon; stroke: black;"/>105
  <text  x="2002" y="148">PERIMETER_BOT_ZN_1 VAV BOX REHEAT
  <tspan x="2002" y="156">COIL</tspan></text>
  <rect x="3000" y="1380" width="200" height="20" style="fill:salmon; stroke: black;"/>106
  <text  x="3002" y="1388">PERIMETER_BOT_ZN_2 VAV BOX REHEAT
  <tspan x="3002" y="1396">COIL</tspan></text>
  <rect x="2000" y="100" width="200" height="20" style="fill:salmon; stroke: black;"/>107
  <text  x="2002" y="108">PERIMETER_BOT_ZN_2 VAV BOX REHEAT
  <tspan x="2002" y="116">COIL</tspan></text>
  <rect x="3000" y="1340" width="200" height="20" style="fill:salmon; stroke: black;"/>108
  <text  x="3002" y="1348">PERIMETER_BOT_ZN_3 VAV BOX REHEAT
  <tspan x="3002" y="1356">COIL</tspan></text>
  <rect x="2000" y="60" width="200" height="20" style="fill:salmon; stroke: black;"/>109
  <text  x="2002" y="68">PERIMETER_BOT_ZN_3 VAV BOX REHEAT
  <tspan x="2002" y="76">COIL</tspan></text>
  <rect x="3000" y="1460" width="200" height="20" style="fill:salmon; stroke: black;"/>110
  <text  x="3002" y="1468">PERIMETER_BOT_ZN_4 VAV BOX REHEAT
  <tspan x="3002" y="1476">COIL</tspan></text>
  <rect x="2000" y="180" width="200" height="20" style="fill:salmon; stroke: black;"/>111
  <text  x="2002" y="188">PERIMETER_BOT_ZN_4 VAV BOX REHEAT
  <tspan x="2002" y="196">COIL</tspan></text>
  <rect x="3000" y="1580" width="200" height="20" style="fill:salmon; stroke: black;"/>112
  <text  x="3002" y="1588">PERIMETER_MID_ZN_1 VAV BOX REHEAT
  <tspan x="3002" y="1596">COIL</tspan></text>
  <rect x="2000" y="380" width="200" height="20" style="fill:salmon; stroke: black;"/>113
  <text  x="2002" y="388">PERIMETER_MID_ZN_1 VAV BOX REHEAT
  <tspan x="2002" y="396">COIL</tspan></text>
  <rect x="3000" y="1540" width="200" height="20" style="fill:salmon; stroke: black;"/>114
  <text  x="3002" y="1548">PERIMETER_MID_ZN_2 VAV BOX REHEAT
  <tspan x="3002" y="1556">COIL</tspan></text>
  <rect x="2000" y="340" width="200" height="20" style="fill:salmon; stroke: black;"/>115
  <text  x="2002" y="348">PERIMETER_MID_ZN_2 VAV BOX REHEAT
  <tspan x="2002" y="356">COIL</tspan></text>
  <rect x="3000" y="1500" width="200" height="20" style="fill:salmon; stroke: black;"/>116
  <text  x="3002" y="1508">PERIMETER_MID_ZN_3 VAV BOX REHEAT
  <tspan x="3002" y="1516">COIL</tspan></text>
  <rect x="2000" y="300" width="200" height="20" style="fill:salmon; stroke: black;"/>117
  <text  x="2002" y="308">PERIMETER_MID_ZN_3 VAV BOX REHEAT
  <tspan x="2002" y="316">COIL</tspan></text>
  <rect x="3000" y="1620" width="200" height="20" style="fill:salmon; stroke: black;"/>118
  <text  x="3002" y="1628">PERIMETER_MID_ZN_4 VAV BOX REHEAT
  <tspan x="3002" y="1636">COIL</tspan></text>
  <rect x="2000" y="420" width="200" height="20" style="fill:salmon; stroke: black;"/>119
  <text  x="2002" y="428">PERIMETER_MID_ZN_4 VAV BOX REHEAT
  <tspan x="2002" y="436">COIL</tspan></text>
  <rect x="3000" y="1740" width="200" height="20" style="fill:salmon; stroke: black;"/>120
  <text  x="3002" y="1748">PERIMETER_TOP_ZN_1 VAV BOX REHEAT
  <tspan x="3002" y="1756">COIL</tspan></text>
  <rect x="2000" y="620" width="200" height="20" style="fill:salmon; stroke: black;"/>121
  <text  x="2002" y="628">PERIMETER_TOP_ZN_1 VAV BOX REHEAT
  <tspan x="2002" y="636">COIL</tspan></text>
  <rect x="3000" y="1700" width="200" height="20" style="fill:salmon; stroke: black;"/>122
  <text  x="3002" y="1708">PERIMETER_TOP_ZN_2 VAV BOX REHEAT
  <tspan x="3002" y="1716">COIL</tspan></text>
  <rect x="2000" y="580" width="200" height="20" style="fill:salmon; stroke: black;"/>123
  <text  x="2002" y="588">PERIMETER_TOP_ZN_2 VAV BOX REHEAT
  <tspan x="2002" y="596">COIL</tspan></text>
  <rect x="3000" y="1660" width="200" height="20" style="fill:salmon; stroke: black;"/>124
  <text  x="3002" y="1668">PERIMETER_TOP_ZN_3 VAV BOX REHEAT
  <tspan x="3002" y="1676">COIL</tspan></text>
  <rect x="2000" y="540" width="200" height="20" style="fill:salmon; stroke: black;"/>125
  <text  x="2002" y="548">PERIMETER_TOP_ZN_3 VAV BOX REHEAT
  <tspan x="2002" y="556">COIL</tspan></text>
  <rect x="3000" y="1780" width="200" height="20" style="fill:salmon; stroke: black;"/>126
  <text  x="3002" y="1788">PERIMETER_TOP_ZN_4 VAV BOX REHEAT
  <tspan x="3002" y="1796">COIL</tspan></text>
  <rect x="2000" y="660" width="200" height="20" style="fill:salmon; stroke: black;"/>127
  <text  x="2002" y="668">PERIMETER_TOP_ZN_4 VAV BOX REHEAT
  <tspan x="2002" y="676">COIL</tspan></text>
  <rect x="3000" y="1860" width="200" height="20" style="fill:salmon; stroke: black;"/>128
  <text x="3002" y="1873">VAV_1_HEATC</text>
  <rect x="800" y="20" width="200" height="20" style="fill:salmon; stroke: black;"/>129
  <text x="802" y="33">VAV_1_HEATC</text>
  <rect x="3000" y="1900" width="200" height="20" style="fill:salmon; stroke: black;"/>130
  <text x="3002" y="1913">VAV_2_HEATC</text>
  <rect x="800" y="260" width="200" height="20" style="fill:salmon; stroke: black;"/>131
  <text x="802" y="273">VAV_2_HEATC</text>
  <rect x="3000" y="1940" width="200" height="20" style="fill:salmon; stroke: black;"/>132
  <text x="3002" y="1953">VAV_3_HEATC</text>
  <rect x="800" y="500" width="200" height="20" style="fill:salmon; stroke: black;"/>133
  <text x="802" y="513">VAV_3_HEATC</text>
  <rect x="3000" y="1820" width="200" height="20" style="fill:salmon; stroke: black;"/>134
  <text x="3002" y="1833">VAV_5_HEATC</text>
  <rect x="700" y="740" width="200" height="20" style="fill:salmon; stroke: black;"/>135
  <text x="702" y="753">VAV_5_HEATC</text>
  <rect x="2300" y="1020" width="200" height="20" style="fill:skyblue; stroke: black;"/>136
  <text x="2302" y="1033">VAV_3_COOLC</text>
  <rect x="500" y="500" width="200" height="20" style="fill:skyblue; stroke: black;"/>137
  <text x="502" y="513">VAV_3_COOLC</text>
  <rect x="2300" y="980" width="200" height="20" style="fill:skyblue; stroke: black;"/>138
  <text x="2302" y="993">VAV_2_COOLC</text>
  <rect x="500" y="260" width="200" height="20" style="fill:skyblue; stroke: black;"/>139
  <text x="502" y="273">VAV_2_COOLC</text>
  <rect x="2300" y="940" width="200" height="20" style="fill:skyblue; stroke: black;"/>140
  <text x="2302" y="953">VAV_1_COOLC</text>
  <rect x="500" y="20" width="200" height="20" style="fill:skyblue; stroke: black;"/>141
  <text x="502" y="33">VAV_1_COOLC</text>
  <rect x="2300" y="900" width="200" height="20" style="fill:skyblue; stroke: black;"/>142
  <text x="2302" y="913">VAV_5_COOLC</text>
  <rect x="450" y="740" width="200" height="20" style="fill:skyblue; stroke: black;"/>143
  <text x="452" y="753">VAV_5_COOLC</text>
  <rect x="1700" y="20" width="200" height="20" style="fill:wheat; stroke: black;"/>144
  <text x="1702" y="33">CORE_BOTTOM VAV BOX COMPONENT</text>
  <rect x="1700" y="260" width="200" height="20" style="fill:wheat; stroke: black;"/>145
  <text x="1702" y="273">CORE_MID VAV BOX COMPONENT</text>
  <rect x="1700" y="500" width="200" height="20" style="fill:wheat; stroke: black;"/>146
  <text x="1702" y="513">CORE_TOP VAV BOX COMPONENT</text>
  <rect x="1700" y="140" width="200" height="20" style="fill:wheat; stroke: black;"/>147
  <text x="1702" y="153">PERIMETER_BOT_ZN_1 VAV BOX COMPONENT</text>
  <rect x="1700" y="100" width="200" height="20" style="fill:wheat; stroke: black;"/>148
  <text x="1702" y="113">PERIMETER_BOT_ZN_2 VAV BOX COMPONENT</text>
  <rect x="1700" y="60" width="200" height="20" style="fill:wheat; stroke: black;"/>149
  <text x="1702" y="73">PERIMETER_BOT_ZN_3 VAV BOX COMPONENT</text>
  <rect x="1700" y="180" width="200" height="20" style="fill:wheat; stroke: black;"/>150
  <text x="1702" y="193">PERIMETER_BOT_ZN_4 VAV BOX COMPONENT</text>
  <rect x="1700" y="380" width="200" height="20" style="fill:wheat; stroke: black;"/>151
  <text x="1702" y="393">PERIMETER_MID_ZN_1 VAV BOX COMPONENT</text>
  <rect x="1700" y="340" width="200" height="20" style="fill:wheat; stroke: black;"/>152
  <text x="1702" y="353">PERIMETER_MID_ZN_2 VAV BOX COMPONENT</text>
  <rect x="1700" y="300" width="200" height="20" style="fill:wheat; stroke: black;"/>153
  <text x="1702" y="313">PERIMETER_MID_ZN_3 VAV BOX COMPONENT</text>
  <rect x="1700" y="420" width="200" height="20" style="fill:wheat; stroke: black;"/>154
  <text x="1702" y="433">PERIMETER_MID_ZN_4 VAV BOX COMPONENT</text>
  <rect x="1700" y="620" width="200" height="20" style="fill:wheat; stroke: black;"/>155
  <text x="1702" y="633">PERIMETER_TOP_ZN_1 VAV BOX COMPONENT</text>
  <rect x="1700" y="580" width="200" height="20" style="fill:wheat; stroke: black;"/>156
  <text x="1702" y="593">PERIMETER_TOP_ZN_2 VAV BOX COMPONENT</text>
  <rect x="1700" y="540" width="200" height="20" style="fill:wheat; stroke: black;"/>157
  <text x="1702" y="553">PERIMETER_TOP_ZN_3 VAV BOX COMPONENT</text>
  <rect x="1700" y="660" width="200" height="20" style="fill:wheat; stroke: black;"/>158
  <text x="1702" y="673">PERIMETER_TOP_ZN_4 VAV BOX COMPONENT</text>
  <rect x="2600" y="420" width="200" height="20" style="fill:lightgreen; stroke: black;"/>167
  <text x="2602" y="433">VAV_2 RETURN PLENUM</text>
  <rect x="2600" y="180" width="200" height="20" style="fill:lightgreen; stroke: black;"/>168
  <text x="2602" y="193">VAV_1 RETURN PLENUM</text>
  <rect x="2600" y="660" width="200" height="20" style="fill:lightgreen; stroke: black;"/>169
  <text x="2602" y="673">VAV_3 RETURN PLENUM</text>
  <rect x="2900" y="180" width="200" height="20" style="fill:wheat; stroke: black;"/>170
  <text x="2902" y="193">VAV_1 RETURN AIR MIXER</text>
  <rect x="2900" y="420" width="200" height="20" style="fill:wheat; stroke: black;"/>171
  <text x="2902" y="433">VAV_2 RETURN AIR MIXER</text>
  <rect x="2900" y="660" width="200" height="20" style="fill:wheat; stroke: black;"/>172
  <text x="2902" y="673">VAV_3 RETURN AIR MIXER</text>
  <rect x="2200" y="740" width="200" height="20" style="fill:wheat; stroke: black;"/>173
  <text x="2202" y="753">VAV_5 RETURN AIR MIXER</text>
  <rect x="200" y="20" width="200" height="20" style="fill:lawngreen; stroke: black;"/>174
  <text x="202" y="33">VAV_1_OAMIXING BOX</text>
  <rect x="200" y="260" width="200" height="20" style="fill:lawngreen; stroke: black;"/>175
  <text x="202" y="273">VAV_2_OAMIXING BOX</text>
  <rect x="200" y="500" width="200" height="20" style="fill:lawngreen; stroke: black;"/>176
  <text x="202" y="513">VAV_3_OAMIXING BOX</text>
  <rect x="200" y="740" width="200" height="20" style="fill:lawngreen; stroke: black;"/>177
  <text x="202" y="753">VAV_5_OAMIXING BOX</text>
  <rect x="1100" y="20" width="200" height="20" style="fill:silver; stroke: black;"/>178
  <text x="1102" y="33">VAV_1_FAN</text>
  <rect x="1100" y="260" width="200" height="20" style="fill:silver; stroke: black;"/>179
  <text x="1102" y="273">VAV_2_FAN</text>
  <rect x="1100" y="500" width="200" height="20" style="fill:silver; stroke: black;"/>180
  <text x="1102" y="513">VAV_3_FAN</text>
  <rect x="950" y="740" width="200" height="20" style="fill:silver; stroke: black;"/>181
  <text x="952" y="753">VAV_5_FAN</text>
  <rect x="200" y="820" width="200" height="20" style="fill:springgreen; stroke: black;"/>186
  <text x="202" y="833">COOLSYS1 PUMP</text>
  <rect x="200" y="1140" width="200" height="20" style="fill:springgreen; stroke: black;"/>187
  <text x="202" y="1153">HEATSYS1 PUMP</text>
  <rect x="200" y="2060" width="200" height="20" style="fill:springgreen; stroke: black;"/>188
  <text x="202" y="2073">SWHSYS1 PUMP</text>
  <rect x="200" y="2300" width="200" height="20" style="fill:springgreen; stroke: black;"/>189
  <text x="202" y="2313">TOWERWATERSYS PUMP</text>
  <rect x="2300" y="20" width="200" height="20" style="fill:chartreuse; stroke: black;"/>190
  <text x="2302" y="33">CORE_BOTTOM</text>
  <rect x="2300" y="260" width="200" height="20" style="fill:chartreuse; stroke: black;"/>191
  <text x="2302" y="273">CORE_MID</text>
  <rect x="2300" y="500" width="200" height="20" style="fill:chartreuse; stroke: black;"/>192
  <text x="2302" y="513">CORE_TOP</text>
  <rect x="2300" y="140" width="200" height="20" style="fill:chartreuse; stroke: black;"/>193
  <text x="2302" y="153">PERIMETER_BOT_ZN_1</text>
  <rect x="2300" y="100" width="200" height="20" style="fill:chartreuse; stroke: black;"/>194
  <text x="2302" y="113">PERIMETER_BOT_ZN_2</text>
  <rect x="2300" y="60" width="200" height="20" style="fill:chartreuse; stroke: black;"/>195
  <text x="2302" y="73">PERIMETER_BOT_ZN_3</text>
  <rect x="2300" y="180" width="200" height="20" style="fill:chartreuse; stroke: black;"/>196
  <text x="2302" y="193">PERIMETER_BOT_ZN_4</text>
  <rect x="2300" y="380" width="200" height="20" style="fill:chartreuse; stroke: black;"/>197
  <text x="2302" y="393">PERIMETER_MID_ZN_1</text>
  <rect x="2300" y="340" width="200" height="20" style="fill:chartreuse; stroke: black;"/>198
  <text x="2302" y="353">PERIMETER_MID_ZN_2</text>
  <rect x="2300" y="300" width="200" height="20" style="fill:chartreuse; stroke: black;"/>199
  <text x="2302" y="313">PERIMETER_MID_ZN_3</text>
  <rect x="2300" y="420" width="200" height="20" style="fill:chartreuse; stroke: black;"/>200
  <text x="2302" y="433">PERIMETER_MID_ZN_4</text>
  <rect x="2300" y="620" width="200" height="20" style="fill:chartreuse; stroke: black;"/>201
  <text x="2302" y="633">PERIMETER_TOP_ZN_1</text>
  <rect x="2300" y="580" width="200" height="20" style="fill:chartreuse; stroke: black;"/>202
  <text x="2302" y="593">PERIMETER_TOP_ZN_2</text>
  <rect x="2300" y="540" width="200" height="20" style="fill:chartreuse; stroke: black;"/>203
  <text x="2302" y="553">PERIMETER_TOP_ZN_3</text>
  <rect x="2300" y="660" width="200" height="20" style="fill:chartreuse; stroke: black;"/>204
  <text x="2302" y="673">PERIMETER_TOP_ZN_4</text>
  <line x1="1000" y1="2070" x2="1100" y2="2110" style="stroke:black;"/>
  <line x1="2500" y1="1070" x2="2600" y2="1070" style="stroke:black;"/>
  <line x1="1900" y1="910" x2="2000" y2="910" style="stroke:black;"/>
  <line x1="1000" y1="910" x2="1100" y2="910" style="stroke:black;"/>
  <line x1="1600" y1="910" x2="1700" y2="910" style="stroke:black;"/>
  <line x1="3200" y1="1990" x2="3400" y2="1990" style="stroke:black;"/>
  <line x1="2400" y1="1190" x2="2600" y2="1190" style="stroke:black;"/>
  <line x1="1200" y1="1190" x2="1400" y2="1190" style="stroke:black;"/>
  <line x1="2000" y1="1190" x2="2200" y2="1190" style="stroke:black;"/>
  <line x1="2150" y1="2430" x2="2200" y2="2430" style="stroke:black;"/>
  <line x1="1650" y1="2350" x2="1700" y2="2350" style="stroke:black;"/>
  <line x1="900" y1="2350" x2="950" y2="2350" style="stroke:black;"/>
  <line x1="1400" y1="2350" x2="1450" y2="2350" style="stroke:black;"/>
  <line x1="2500" y1="2230" x2="2600" y2="2230" style="stroke:black;"/>
  <line x1="1900" y1="2110" x2="2000" y2="2110" style="stroke:black;"/>
  <line x1="1000" y1="2110" x2="1100" y2="2110" style="stroke:black;"/>
  <line x1="1600" y1="2110" x2="1700" y2="2110" style="stroke:black;"/>
  <line x1="2200" y1="910" x2="2300" y2="910" style="stroke:black;"/>
  <line x1="2200" y1="910" x2="2300" y2="950" style="stroke:black;"/>
  <line x1="2200" y1="910" x2="2300" y2="990" style="stroke:black;"/>
  <line x1="2200" y1="910" x2="2300" y2="1030" style="stroke:black;"/>
  <line x1="2200" y1="910" x2="2300" y2="1070" style="stroke:black;"/>
  <line x1="2800" y1="1070" x2="2900" y2="1070" style="stroke:black;"/>
  <line x1="1000" y1="830" x2="1100" y2="910" style="stroke:black;"/>
  <line x1="2150" y1="2350" x2="2200" y2="2430" style="stroke:black;"/>
  <line x1="1000" y1="870" x2="1100" y2="910" style="stroke:black;"/>
  <line x1="2150" y1="2390" x2="2200" y2="2430" style="stroke:black;"/>
  <line x1="700" y1="830" x2="800" y2="830" style="stroke:black;"/>
  <line x1="700" y1="830" x2="800" y2="870" style="stroke:black;"/>
  <line x1="700" y1="830" x2="800" y2="910" style="stroke:black;"/>
  <line x1="1300" y1="910" x2="1400" y2="910" style="stroke:black;"/>
  <line x1="2800" y1="1190" x2="3000" y2="1190" style="stroke:black;"/>
  <line x1="2800" y1="1190" x2="3000" y2="1230" style="stroke:black;"/>
  <line x1="2800" y1="1190" x2="3000" y2="1270" style="stroke:black;"/>
  <line x1="2800" y1="1190" x2="3000" y2="1310" style="stroke:black;"/>
  <line x1="2800" y1="1190" x2="3000" y2="1350" style="stroke:black;"/>
  <line x1="2800" y1="1190" x2="3000" y2="1390" style="stroke:black;"/>
  <line x1="2800" y1="1190" x2="3000" y2="1430" style="stroke:black;"/>
  <line x1="2800" y1="1190" x2="3000" y2="1470" style="stroke:black;"/>
  <line x1="2800" y1="1190" x2="3000" y2="1510" style="stroke:black;"/>
  <line x1="2800" y1="1190" x2="3000" y2="1550" style="stroke:black;"/>
  <line x1="2800" y1="1190" x2="3000" y2="1590" style="stroke:black;"/>
  <line x1="2800" y1="1190" x2="3000" y2="1630" style="stroke:black;"/>
  <line x1="2800" y1="1190" x2="3000" y2="1670" style="stroke:black;"/>
  <line x1="2800" y1="1190" x2="3000" y2="1710" style="stroke:black;"/>
  <line x1="2800" y1="1190" x2="3000" y2="1750" style="stroke:black;"/>
  <line x1="2800" y1="1190" x2="3000" y2="1790" style="stroke:black;"/>
  <line x1="2800" y1="1190" x2="3000" y2="1830" style="stroke:black;"/>
  <line x1="2800" y1="1190" x2="3000" y2="1870" style="stroke:black;"/>
  <line x1="2800" y1="1190" x2="3000" y2="1910" style="stroke:black;"/>
  <line x1="2800" y1="1190" x2="3000" y2="1950" style="stroke:black;"/>
  <line x1="2800" y1="1190" x2="3000" y2="1990" style="stroke:black;"/>
  <line x1="3600" y1="1990" x2="3800" y2="1990" style="stroke:black;"/>
  <line x1="1200" y1="1150" x2="1400" y2="1190" style="stroke:black;"/>
  <line x1="800" y1="1150" x2="1000" y2="1150" style="stroke:black;"/>
  <line x1="800" y1="1150" x2="1000" y2="1190" style="stroke:black;"/>
  <line x1="1600" y1="1190" x2="1800" y2="1190" style="stroke:black;"/>
  <line x1="2500" y1="2110" x2="2600" y2="2230" style="stroke:black;"/>
  <line x1="2500" y1="2150" x2="2600" y2="2230" style="stroke:black;"/>
  <line x1="2500" y1="2190" x2="2600" y2="2230" style="stroke:black;"/>
  <line x1="2200" y1="2110" x2="2300" y2="2110" style="stroke:black;"/>
  <line x1="2200" y1="2110" x2="2300" y2="2150" style="stroke:black;"/>
  <line x1="2200" y1="2110" x2="2300" y2="2190" style="stroke:black;"/>
  <line x1="2200" y1="2110" x2="2300" y2="2230" style="stroke:black;"/>
  <line x1="2800" y1="2230" x2="2900" y2="2230" style="stroke:black;"/>
  <line x1="700" y1="2070" x2="800" y2="2070" style="stroke:black;"/>
  <line x1="700" y1="2070" x2="800" y2="2110" style="stroke:black;"/>
  <line x1="1300" y1="2110" x2="1400" y2="2110" style="stroke:black;"/>
  <line x1="1900" y1="2350" x2="1950" y2="2350" style="stroke:black;"/>
  <line x1="1900" y1="2350" x2="1950" y2="2390" style="stroke:black;"/>
  <line x1="1900" y1="2350" x2="1950" y2="2430" style="stroke:black;"/>
  <line x1="2400" y1="2430" x2="2450" y2="2430" style="stroke:black;"/>
  <line x1="900" y1="2310" x2="950" y2="2350" style="stroke:black;"/>
  <line x1="650" y1="2310" x2="700" y2="2310" style="stroke:black;"/>
  <line x1="650" y1="2310" x2="700" y2="2350" style="stroke:black;"/>
  <line x1="1150" y1="2350" x2="1200" y2="2350" style="stroke:black;"/>
  <line x1="1600" y1="30" x2="1700" y2="30" style="stroke:black;"/>
  <line x1="1600" y1="30" x2="1700" y2="70" style="stroke:black;"/>
  <line x1="1600" y1="30" x2="1700" y2="110" style="stroke:black;"/>
  <line x1="1600" y1="30" x2="1700" y2="150" style="stroke:black;"/>
  <line x1="1600" y1="30" x2="1700" y2="190" style="stroke:black;"/>
  <line x1="1600" y1="270" x2="1700" y2="270" style="stroke:black;"/>
  <line x1="1600" y1="270" x2="1700" y2="310" style="stroke:black;"/>
  <line x1="1600" y1="270" x2="1700" y2="350" style="stroke:black;"/>
  <line x1="1600" y1="270" x2="1700" y2="390" style="stroke:black;"/>
  <line x1="1600" y1="270" x2="1700" y2="430" style="stroke:black;"/>
  <line x1="1600" y1="510" x2="1700" y2="510" style="stroke:black;"/>
  <line x1="1600" y1="510" x2="1700" y2="550" style="stroke:black;"/>
  <line x1="1600" y1="510" x2="1700" y2="590" style="stroke:black;"/>
  <line x1="1600" y1="510" x2="1700" y2="630" style="stroke:black;"/>
  <line x1="1600" y1="510" x2="1700" y2="670" style="stroke:black;"/>
  <line x1="1400" y1="750" x2="1450" y2="750" style="stroke:black;"/>
  <line x1="1650" y1="750" x2="1700" y2="750" style="stroke:black;"/>
  <line x1="3200" y1="1190" x2="3400" y2="1990" style="stroke:black;"/>
  <line x1="1900" y1="750" x2="1950" y2="750" style="stroke:black;"/>
  <line x1="3200" y1="1230" x2="3400" y2="1990" style="stroke:black;"/>
  <line x1="2200" y1="30" x2="2300" y2="30" style="stroke:black;"/>
  <line x1="3200" y1="1270" x2="3400" y2="1990" style="stroke:black;"/>
  <line x1="2200" y1="270" x2="2300" y2="270" style="stroke:black;"/>
  <line x1="3200" y1="1310" x2="3400" y2="1990" style="stroke:black;"/>
  <line x1="2200" y1="510" x2="2300" y2="510" style="stroke:black;"/>
  <line x1="3200" y1="1430" x2="3400" y2="1990" style="stroke:black;"/>
  <line x1="2200" y1="150" x2="2300" y2="150" style="stroke:black;"/>
  <line x1="3200" y1="1390" x2="3400" y2="1990" style="stroke:black;"/>
  <line x1="2200" y1="110" x2="2300" y2="110" style="stroke:black;"/>
  <line x1="3200" y1="1350" x2="3400" y2="1990" style="stroke:black;"/>
  <line x1="2200" y1="70" x2="2300" y2="70" style="stroke:black;"/>
  <line x1="3200" y1="1470" x2="3400" y2="1990" style="stroke:black;"/>
  <line x1="2200" y1="190" x2="2300" y2="190" style="stroke:black;"/>
  <line x1="3200" y1="1590" x2="3400" y2="1990" style="stroke:black;"/>
  <line x1="2200" y1="390" x2="2300" y2="390" style="stroke:black;"/>
  <line x1="3200" y1="1550" x2="3400" y2="1990" style="stroke:black;"/>
  <line x1="2200" y1="350" x2="2300" y2="350" style="stroke:black;"/>
  <line x1="3200" y1="1510" x2="3400" y2="1990" style="stroke:black;"/>
  <line x1="2200" y1="310" x2="2300" y2="310" style="stroke:black;"/>
  <line x1="3200" y1="1630" x2="3400" y2="1990" style="stroke:black;"/>
  <line x1="2200" y1="430" x2="2300" y2="430" style="stroke:black;"/>
  <line x1="3200" y1="1750" x2="3400" y2="1990" style="stroke:black;"/>
  <line x1="2200" y1="630" x2="2300" y2="630" style="stroke:black;"/>
  <line x1="3200" y1="1710" x2="3400" y2="1990" style="stroke:black;"/>
  <line x1="2200" y1="590" x2="2300" y2="590" style="stroke:black;"/>
  <line x1="3200" y1="1670" x2="3400" y2="1990" style="stroke:black;"/>
  <line x1="2200" y1="550" x2="2300" y2="550" style="stroke:black;"/>
  <line x1="3200" y1="1790" x2="3400" y2="1990" style="stroke:black;"/>
  <line x1="2200" y1="670" x2="2300" y2="670" style="stroke:black;"/>
  <line x1="3200" y1="1870" x2="3400" y2="1990" style="stroke:black;"/>
  <line x1="1000" y1="30" x2="1100" y2="30" style="stroke:black;"/>
  <line x1="3200" y1="1910" x2="3400" y2="1990" style="stroke:black;"/>
  <line x1="1000" y1="270" x2="1100" y2="270" style="stroke:black;"/>
  <line x1="3200" y1="1950" x2="3400" y2="1990" style="stroke:black;"/>
  <line x1="1000" y1="510" x2="1100" y2="510" style="stroke:black;"/>
  <line x1="3200" y1="1830" x2="3400" y2="1990" style="stroke:black;"/>
  <line x1="900" y1="750" x2="950" y2="750" style="stroke:black;"/>
  <line x1="2500" y1="1030" x2="2600" y2="1070" style="stroke:black;"/>
  <line x1="700" y1="510" x2="800" y2="510" style="stroke:black;"/>
  <line x1="2500" y1="990" x2="2600" y2="1070" style="stroke:black;"/>
  <line x1="700" y1="270" x2="800" y2="270" style="stroke:black;"/>
  <line x1="2500" y1="950" x2="2600" y2="1070" style="stroke:black;"/>
  <line x1="700" y1="30" x2="800" y2="30" style="stroke:black;"/>
  <line x1="2500" y1="910" x2="2600" y2="1070" style="stroke:black;"/>
  <line x1="650" y1="750" x2="700" y2="750" style="stroke:black;"/>
  <line x1="1900" y1="30" x2="2000" y2="30" style="stroke:black;"/>
  <line x1="1900" y1="270" x2="2000" y2="270" style="stroke:black;"/>
  <line x1="1900" y1="510" x2="2000" y2="510" style="stroke:black;"/>
  <line x1="1900" y1="150" x2="2000" y2="150" style="stroke:black;"/>
  <line x1="1900" y1="110" x2="2000" y2="110" style="stroke:black;"/>
  <line x1="1900" y1="70" x2="2000" y2="70" style="stroke:black;"/>
  <line x1="1900" y1="190" x2="2000" y2="190" style="stroke:black;"/>
  <line x1="1900" y1="390" x2="2000" y2="390" style="stroke:black;"/>
  <line x1="1900" y1="350" x2="2000" y2="350" style="stroke:black;"/>
  <line x1="1900" y1="310" x2="2000" y2="310" style="stroke:black;"/>
  <line x1="1900" y1="430" x2="2000" y2="430" style="stroke:black;"/>
  <line x1="1900" y1="630" x2="2000" y2="630" style="stroke:black;"/>
  <line x1="1900" y1="590" x2="2000" y2="590" style="stroke:black;"/>
  <line x1="1900" y1="550" x2="2000" y2="550" style="stroke:black;"/>
  <line x1="1900" y1="670" x2="2000" y2="670" style="stroke:black;"/>
  <line x1="2800" y1="430" x2="2900" y2="430" style="stroke:black;"/>
  <line x1="2800" y1="190" x2="2900" y2="190" style="stroke:black;"/>
  <line x1="2800" y1="670" x2="2900" y2="670" style="stroke:black;"/>
  <line x1="400" y1="30" x2="500" y2="30" style="stroke:black;"/>
  <line x1="400" y1="270" x2="500" y2="270" style="stroke:black;"/>
  <line x1="400" y1="510" x2="500" y2="510" style="stroke:black;"/>
  <line x1="400" y1="750" x2="450" y2="750" style="stroke:black;"/>
  <line x1="1300" y1="30" x2="1400" y2="30" style="stroke:black;"/>
  <line x1="1300" y1="270" x2="1400" y2="270" style="stroke:black;"/>
  <line x1="1300" y1="510" x2="1400" y2="510" style="stroke:black;"/>
  <line x1="1150" y1="750" x2="1200" y2="750" style="stroke:black;"/>
  <line x1="400" y1="830" x2="500" y2="830" style="stroke:black;"/>
  <line x1="400" y1="1150" x2="600" y2="1150" style="stroke:black;"/>
  <line x1="400" y1="2070" x2="500" y2="2070" style="stroke:black;"/>
  <line x1="400" y1="2310" x2="450" y2="2310" style="stroke:black;"/>
  <line x1="2150" y1="750" x2="2200" y2="750" style="stroke:black;"/>
  <line x1="2500" y1="30" x2="2600" y2="190" style="stroke:black;"/>
  <line x1="2500" y1="270" x2="2600" y2="430" style="stroke:black;"/>
  <line x1="2500" y1="510" x2="2600" y2="670" style="stroke:black;"/>
  <line x1="2500" y1="150" x2="2600" y2="190" style="stroke:black;"/>
  <line x1="2500" y1="110" x2="2600" y2="190" style="stroke:black;"/>
  <line x1="2500" y1="70" x2="2600" y2="190" style="stroke:black;"/>
  <line x1="2500" y1="190" x2="2600" y2="190" style="stroke:black;"/>
  <line x1="2500" y1="390" x2="2600" y2="430" style="stroke:black;"/>
  <line x1="2500" y1="350" x2="2600" y2="430" style="stroke:black;"/>
  <line x1="2500" y1="310" x2="2600" y2="430" style="stroke:black;"/>
  <line x1="2500" y1="430" x2="2600" y2="430" style="stroke:black;"/>
  <line x1="2500" y1="630" x2="2600" y2="670" style="stroke:black;"/>
  <line x1="2500" y1="590" x2="2600" y2="670" style="stroke:black;"/>
  <line x1="2500" y1="550" x2="2600" y2="670" style="stroke:black;"/>
  <line x1="2500" y1="670" x2="2600" y2="670" style="stroke:black;"/>
  <line x1="200" y1="30" x2="175" y2="30" style="stroke:black;"/>
  <line x1="175" y1="30" x2="175" y2="0" style="stroke:black;"/>
  <line x1="175" y1="0" x2="3125" y2="0" style="stroke:black;"/>
  <line x1="3125" y1="0" x2="3125" y2="190" style="stroke:black;"/>
  <line x1="3125" y1="190" x2="3100" y2="190" style="stroke:black;"/>
  <line x1="200" y1="270" x2="175" y2="270" style="stroke:black;"/>
  <line x1="175" y1="270" x2="175" y2="240" style="stroke:black;"/>
  <line x1="175" y1="240" x2="3125" y2="240" style="stroke:black;"/>
  <line x1="3125" y1="240" x2="3125" y2="430" style="stroke:black;"/>
  <line x1="3125" y1="430" x2="3100" y2="430" style="stroke:black;"/>
  <line x1="200" y1="510" x2="175" y2="510" style="stroke:black;"/>
  <line x1="175" y1="510" x2="175" y2="480" style="stroke:black;"/>
  <line x1="175" y1="480" x2="3125" y2="480" style="stroke:black;"/>
  <line x1="3125" y1="480" x2="3125" y2="670" style="stroke:black;"/>
  <line x1="3125" y1="670" x2="3100" y2="670" style="stroke:black;"/>
  <line x1="200" y1="750" x2="175" y2="750" style="stroke:black;"/>
  <line x1="175" y1="750" x2="175" y2="720" style="stroke:black;"/>
  <line x1="175" y1="720" x2="2425" y2="720" style="stroke:black;"/>
  <line x1="2425" y1="720" x2="2425" y2="750" style="stroke:black;"/>
  <line x1="2425" y1="750" x2="2400" y2="750" style="stroke:black;"/>
  <line x1="200" y1="830" x2="175" y2="830" style="stroke:black;"/>
  <line x1="175" y1="830" x2="175" y2="800" style="stroke:black;"/>
  <line x1="175" y1="800" x2="3125" y2="800" style="stroke:black;"/>
  <line x1="3125" y1="800" x2="3125" y2="1070" style="stroke:black;"/>
  <line x1="3125" y1="1070" x2="3100" y2="1070" style="stroke:black;"/>
  <line x1="200" y1="1150" x2="175" y2="1150" style="stroke:black;"/>
  <line x1="175" y1="1150" x2="175" y2="1120" style="stroke:black;"/>
  <line x1="175" y1="1120" x2="4025" y2="1120" style="stroke:black;"/>
  <line x1="4025" y1="1120" x2="4025" y2="1990" style="stroke:black;"/>
  <line x1="4025" y1="1990" x2="4000" y2="1990" style="stroke:black;"/>
  <line x1="200" y1="2070" x2="175" y2="2070" style="stroke:black;"/>
  <line x1="175" y1="2070" x2="175" y2="2040" style="stroke:black;"/>
  <line x1="175" y1="2040" x2="3125" y2="2040" style="stroke:black;"/>
  <line x1="3125" y1="2040" x2="3125" y2="2230" style="stroke:black;"/>
  <line x1="3125" y1="2230" x2="3100" y2="2230" style="stroke:black;"/>
  <line x1="200" y1="2310" x2="175" y2="2310" style="stroke:black;"/>
  <line x1="175" y1="2310" x2="175" y2="2280" style="stroke:black;"/>
  <line x1="175" y1="2280" x2="2675" y2="2280" style="stroke:black;"/>
  <line x1="2675" y1="2280" x2="2675" y2="2430" style="stroke:black;"/>
  <line x1="2675" y1="2430" x2="2650" y2="2430" style="stroke:black;"/>
  <text x="200" y="2800">Unused Non-Parent Objects:</text>
  <text x="220" y="2820">OutdoorAir:Node</text>
  <text x="220" y="2840">VAV_1 SAT SETPOINT</text>
  <text x="220" y="2860">VAV_2 SAT SETPOINT</text>
  <text x="220" y="2880">VAV_3 SAT SETPOINT</text>
  <text x="220" y="2900">VAV_5 SAT SETPOINT</text>
  <text x="220" y="2920">HEATSYS1 BOILER SETPOINT MANAGER</text>
  <text x="220" y="2940">COOLSYS1 CHILLER 1 SETPOINT MANAGER</text>
  <text x="220" y="2960">COOLSYS1 CHILLER 2 SETPOINT MANAGER</text>
  <text x="220" y="2980">COOLSYS1 LOOP SETPOINT MANAGER</text>
  <text x="220" y="3000">HEATSYS1 LOOP SETPOINT MANAGER</text>
  <text x="220" y="3020">SWHSYS1 LOOP SETPOINT MANAGER</text>
  <text x="220" y="3040">VAV_1_COOLC SAT MANAGER</text>
  <text x="220" y="3060">VAV_1_HEATC SAT MANAGER</text>
  <text x="220" y="3080">VAV_1_OAMIXED AIR TEMP MANAGER</text>
  <text x="220" y="3100">VAV_2_COOLC SAT MANAGER</text>
  <text x="220" y="3120">VAV_2_HEATC SAT MANAGER</text>
  <text x="220" y="3140">VAV_2_OAMIXED AIR TEMP MANAGER</text>
  <text x="220" y="3160">VAV_3_COOLC SAT MANAGER</text>
  <text x="220" y="3180">VAV_3_HEATC SAT MANAGER</text>
  <text x="220" y="3200">VAV_3_OAMIXED AIR TEMP MANAGER</text>
  <text x="220" y="3220">VAV_5_COOLC SAT MANAGER</text>
  <text x="220" y="3240">VAV_5_HEATC SAT MANAGER</text>
  <text x="220" y="3260">VAV_5_OAMIXED AIR TEMP MANAGER</text>
  <text x="220" y="3280">TOWERWATERSYS</text>
  <text x="220" y="3300">VAV_1_COOLC_CONTROLLER</text>
  <text x="220" y="3320">VAV_1_HEATC_CONTROLLER</text>
  <text x="220" y="3340">VAV_2_COOLC_CONTROLLER</text>
  <text x="220" y="3360">VAV_2_HEATC_CONTROLLER</text>
  <text x="220" y="3380">VAV_3_COOLC_CONTROLLER</text>
  <text x="220" y="3400">VAV_3_HEATC_CONTROLLER</text>
  <text x="220" y="3420">VAV_5_COOLC_CONTROLLER</text>
  <text x="220" y="3440">VAV_5_HEATC_CONTROLLER</text>
  <text x="220" y="3460">VAV_1_OA_CONTROLLER</text>
  <text x="220" y="3480">VAV_2_OA_CONTROLLER</text>
  <text x="220" y="3500">VAV_3_OA_CONTROLLER</text>
  <text x="220" y="3520">VAV_5_OA_CONTROLLER</text>
  <text x="200" y="3560">
The following are not supported: objects related to controls or ZoneHVAC:IdealLoadsAirSystem</text>
</g>
</svg>
